<svg xmlns="http://www.w3.org/2000/svg" viewBox="0 0 64 64" width="64" height="64">

  <!-- Background circle -->
  <circle cx="32" cy="32" r="30" fill="#060e1c" stroke="#3B9EBE" stroke-width="1.5"/>

  <!-- Staff line -->
  <line x1="32" y1="12" x2="32" y2="52" stroke="#3B9EBE" stroke-width="3" stroke-linecap="round"/>

  <!-- Wings left -->
  <path d="M32 20 Q22 15 16 18 Q20 23 27 24 Q20 25 15 30 Q22 31 29 27" fill="#3B9EBE"/>
  <!-- Wings right -->
  <path d="M32 20 Q42 15 48 18 Q44 23 37 24 Q44 25 49 30 Q42 31 35 27" fill="#3B9EBE"/>

  <!-- Snake left -->
  <path d="M29 28 Q23 34 29 40 Q35 46 29 52" fill="none" stroke="#22c55e" stroke-width="2" stroke-linecap="round"/>
  <!-- Snake right -->
  <path d="M35 28 Q41 34 35 40 Q29 46 35 52" fill="none" stroke="#22c55e" stroke-width="2" stroke-linecap="round"/>

  <!-- Top orb -->
  <circle cx="32" cy="11" r="5" fill="#060e1c" stroke="#3B9EBE" stroke-width="1.5"/>
  <circle cx="32" cy="11" r="2.5" fill="#3B9EBE"/>

</svg>
